<mxfile host="app.diagrams.net" modified="2023-06-11T12:49:49.901Z" agent="Mozilla/5.0 (Windows NT 10.0; Win64; x64) AppleWebKit/537.36 (KHTML, like Gecko) Chrome/114.0.0.0 Safari/537.36" etag="7cdhhyS-2Lvj4kQ5NA-g" version="21.3.8" type="github">
  <diagram name="Page-1" id="Dh7hcGiAznb-rkb4ZNL5">
    <mxGraphModel dx="1050" dy="541" grid="1" gridSize="10" guides="1" tooltips="1" connect="1" arrows="1" fold="1" page="1" pageScale="1" pageWidth="827" pageHeight="1169" math="0" shadow="0">
      <root>
        <mxCell id="0" />
        <mxCell id="1" parent="0" />
        <mxCell id="gkphJBtDpKk1ZwpOAE3T-2" value="" style="rounded=0;whiteSpace=wrap;html=1;" vertex="1" parent="1">
          <mxGeometry x="120" y="440" width="600" height="80" as="geometry" />
        </mxCell>
        <mxCell id="gkphJBtDpKk1ZwpOAE3T-3" value="SYSTEM LAYER" style="rounded=0;whiteSpace=wrap;html=1;rotation=-90;" vertex="1" parent="1">
          <mxGeometry x="30" y="450" width="120" height="30" as="geometry" />
        </mxCell>
        <mxCell id="gkphJBtDpKk1ZwpOAE3T-4" value="" style="rounded=0;whiteSpace=wrap;html=1;" vertex="1" parent="1">
          <mxGeometry x="140" y="330" width="100" height="60" as="geometry" />
        </mxCell>
      </root>
    </mxGraphModel>
  </diagram>
</mxfile>
